<svg width="512" height="512" viewBox="0 0 1024 1024" fill="none" xmlns="http://www.w3.org/2000/svg">
<g clip-path="url(#clip0_2425_401)">
<rect width="1024" height="1024" rx="512" fill="#14121B"/>
<path d="M536.814 287.113C500.516 305.737 466.207 343.519 475.157 355.226C486.096 369.061 531.344 348.84 567.145 313.719C607.421 273.809 591.012 259.974 536.814 287.113Z" fill="#FF4C35"/>
<path d="M677.197 421.692C595.962 488.346 509.52 553.438 505.354 550.835C503.271 549.793 500.667 520.632 499.105 487.305C494.939 402.945 482.441 376.388 447.031 376.388C415.266 376.388 370.483 430.544 313.722 537.816C264.773 630.507 253.317 688.309 279.354 709.139C287.165 715.388 297.58 720.074 303.308 720.074C318.409 720.074 357.985 698.203 400.686 665.918L438.699 637.277L452.759 664.355C482.441 723.719 529.828 730.489 615.75 687.789C642.308 674.249 689.174 644.047 719.377 620.093C771.971 579.475 828.211 530.005 828.211 524.798C828.211 523.236 811.027 534.171 789.676 548.231C718.856 596.139 625.644 636.756 587.63 636.756C567.322 636.756 535.557 619.051 523.059 600.825L510.561 582.079L537.64 558.646C626.686 482.618 741.769 376.908 738.644 373.784C738.123 372.742 710.004 394.093 677.197 421.692ZM441.824 532.088C445.99 555.521 447.552 577.913 445.99 582.079C444.428 586.245 432.451 595.097 419.432 601.346C397.561 612.282 394.437 612.282 381.418 604.991C361.63 594.056 359.547 564.374 376.732 538.337C394.437 511.779 422.036 484.701 429.326 487.305C432.451 488.346 438.179 508.134 441.824 532.088Z" fill="#FF4C35"/>
<path d="M536.814 287.117C500.516 305.741 466.207 343.523 475.157 355.229C486.096 369.065 531.344 348.844 567.145 313.723C607.421 273.813 591.012 259.978 536.814 287.117Z" fill="#FF4C35"/>
<circle cx="512" cy="512" r="427.555" stroke="url(#paint0_linear_2425_401)" stroke-width="23"/>
</g>
<rect x="0.5" y="0.5" width="1023" height="1023" rx="511.5" stroke="black"/>
<defs>
<linearGradient id="paint0_linear_2425_401" x1="512" y1="72.9453" x2="512" y2="951.055" gradientUnits="userSpaceOnUse">
<stop stop-color="#FF4C35"/>
<stop offset="0.153846" stop-color="#14121B"/>
<stop offset="0.745192" stop-color="#14121B"/>
<stop offset="1" stop-color="#FF4C35"/>
</linearGradient>
<clipPath id="clip0_2425_401">
<rect width="1024" height="1024" rx="512" fill="white"/>
</clipPath>
</defs>
</svg>
